<?xml version="1.0" encoding="UTF-8"?><svg xmlns="http://www.w3.org/2000/svg" viewBox="0 0 638.19 104.95"><defs><style>.d{fill:#231f20;}</style></defs><g id="a"/><g id="b"><g id="c"><g><g><path class="d" d="M202.55,37.19h-4.77c-.51,0-.99-.03-1.44-.05-.4-.02-.78-.04-1.15-.04h0l-2.64,.1c-.15,0-.29,.08-.39,.19-.1,.12-.14,.27-.12,.42l.2,1.38c.04,.25,.27,.45,.52,.46,3,.18,3.62,.22,3.62,7.64s-.44,11.82-1.33,14.19c-1.52,3.93-6.64,4.24-8.18,4.24-1.68,0-4.08-.32-5.95-1.83-1.68-1.34-2.38-3.29-2.38-11.91,0-11.88,.14-11.9,3.75-12.48,.21-.04,.59-.08,.69-.08,.17,0,.32-.08,.42-.21s.14-.3,.09-.46l-.29-1.13c-.06-.24-.27-.4-.52-.4h-13.02c-.3,0-.54,.24-.54,.54v1.13c0,.28,.24,.51,.51,.54,2.53,.23,2.86,.26,2.95,4.93h0l.14,5.55c0,.72-.06,2.73-.12,4.67-.06,1.88-.11,3.67-.11,4.29,0,6.63,4.38,10.14,12.68,10.14,3.77,0,10.42-.7,12.62-5.38,1.54-3.31,2.04-11.81,2.09-16.31,0-5.78,.23-6.79,.3-6.96,.26-.6,1.48-.65,2.4-.68,.29-.01,.52-.25,.52-.54v-1.38c0-.3-.24-.54-.54-.54Z"/><path class="d" d="M283.7,51.22c3.89-1.5,4.77-4.37,4.77-6.67,0-3.72-2.55-7.7-9.69-7.7-.53,0-2.03,.05-3.34,.15-.7,.02-1.4,.06-1.98,.09-.56,.03-1.01,.05-1.22,.05-2.46,0-3.6-.09-4.92-.19-.15-.01-.3,.04-.41,.14-.11,.1-.17,.24-.17,.39v1.32c0,.3,.24,.54,.54,.54,.63,0,1.79,.15,2.2,.71,.72,.93,.91,1.17,.91,13.22,0,13.11-.24,13.11-3.11,13.11-.3,0-.54,.24-.54,.54v1.37c0,.15,.06,.3,.18,.4,.1,.09,.23,.14,.36,.14,.02,0,.04,0,.05,0l.52-.05c1.02-.11,1.76-.19,4.39-.19,.41,0,1.26,.03,2.26,.06l2.87,.09c.99,.03,1.82,.05,2.19,.05,11.11,0,11.98-6.75,11.98-8.83,0-1.69-.6-6.97-7.84-8.73Zm-6.43,1.71c1.86,0,7.93,.53,7.93,7.31,0,2.72-.78,5.85-6.87,5.85-1.87,0-1.91-.16-2.01-.6-.17-.77-.17-2.59-.17-12.5,.37-.03,.78-.06,1.12-.06Zm-1.12-2.65c0-2.73,.02-8.53,.32-10.41,.03-.17,.05-.21,.05-.21,.03-.02,.17-.08,.75-.08,4.31,0,4.77,4.06,4.77,5.81s-.41,2.89-1.26,3.68c-.95,.88-2.5,1.28-4.62,1.2Z"/><path class="d" d="M338.45,66.59c-1.74-.25-2.46-.36-5.19-7.95-.28-.74-.87-2.28-1.6-4.18-1.8-4.69-4.53-11.78-5.26-13.85-.54-1.47-.83-2.49-1.09-3.4l-.06-.22c-.07-.23-.28-.39-.52-.39h-1.27c-.23,0-.44,.15-.51,.37-.31,.97-.6,1.8-1.06,2.95-.58,1.54-9.04,22.31-10.72,25.01-.82,1.32-1.83,1.52-2.57,1.66-.25,.05-.44,.27-.44,.53v.98c0,.15,.06,.29,.17,.39s.26,.16,.41,.14c.51-.04,1.64-.06,3.36-.06,.04,0,.2,0,.45,.02,.53,.02,1.42,.06,2.38,.09l1.38,.04c.88,.03,1.61,.05,1.85,.05,.3,0,.54-.24,.54-.54v-1.12c0-.27-.2-.49-.46-.53l-.11-.02c-1.59-.23-3.15-.56-3.15-1.75,0-.54,.69-2.23,1.01-3.04l1.46-3.54c2.21-.29,4.36-.29,6.11-.29s2.45,.04,3.12,.11l.1,.26c1.93,5.27,2.36,6.72,2.38,6.99,0,.64-.67,1.06-1.98,1.27-.26,.04-.45,.27-.45,.53v1.12c0,.15,.06,.29,.17,.39,.11,.1,.25,.16,.4,.14,.37-.02,.78-.05,1.24-.09,1.46-.11,3.29-.26,5.56-.26,2.06,0,3.17,.11,4.24,.21,.15,0,.3-.04,.41-.14,.11-.1,.17-.25,.17-.4v-.98c0-.27-.2-.49-.46-.53Zm-12.8-11.38c-.6,.06-1.3,.11-2.43,.11-1.73,0-3.27-.16-4.52-.33l3.43-8.56c1.26,2.73,2.39,5.71,3.51,8.78Z"/><path class="d" d="M393.56,37.14c-.38,0-1.7,.02-2.72,.03-.65,0-1.17,.02-1.27,.02-.36,0-1.52-.05-2.63-.19-1.14-.1-2.22-.15-2.63-.15-.6,0-1.1,.07-1.29,.1-.19,.03-.34,.15-.41,.33l-.45,1.08c-.06,.16-.05,.34,.04,.48,.09,.15,.24,.24,.41,.26,4.15,.4,4.49,.43,4.49,10.78,0,.66-.04,2.62-.07,4.64-.03,1.4-.05,2.83-.06,3.86l-3.3-3.11c-2.41-2.2-4.69-4.45-6.82-6.56-8.2-7.87-8.36-8.02-11.37-11.47-.1-.12-.25-.18-.4-.18h-2.29c-.38,0-1.45-.05-2.47-.1-.56-.02-1.12-.07-1.55-.1-.37-.03-.64-.04-.76-.04-.28,0-.52,.22-.54,.51-.04,.76-.04,.97,0,1.53,.02,.25,.21,.45,.46,.49,3.62,.55,3.74,3.19,3.64,7.46l-.24,14.27c-.11,4.25-.41,5.33-2.94,5.37-.28,0-.51,.22-.53,.5-.04,.67-.04,.84,0,1.39,.02,.29,.23,.51,.56,.5,.32-.01,1.04-.05,1.9-.1,1.75-.1,4.15-.23,4.86-.23,1.16,0,1.97,.05,2.61,.09l.39,.06c.57,.08,1.07,.16,1.6,.19,.27,.02,.53-.18,.57-.46l.02-.11c.05-.33,.12-.78-.03-1.41-.05-.21-.22-.37-.44-.41-4.97-.76-4.96-2.11-4.9-6.57l.19-11.26c0-.69,.05-2.02,.1-3.08,.38,.35,.77,.74,1.15,1.12l14.96,14.37c2.63,2.48,5.12,4.96,6.72,7.96,.09,.17,.27,.28,.47,.28h1.46c.15,0,.29-.06,.39-.17,.1-.11,.15-.25,.15-.4l-.1-1.84c-.02-.61-.05-1.35-.08-2.04-.04-.82-.07-1.56-.07-1.85,0-1.39,.1-8.66,.14-10.38,0-5.25,.3-11.11,.96-12.36,.32-.6,1.03-.87,2.11-.78,.16,.01,.3-.04,.41-.14s.17-.24,.17-.39v-1.23c0-.3-.24-.54-.54-.54Z"/><path class="d" d="M438.63,36.76c-.96,0-2.54,.13-4.08,.25-1.29,.1-2.63,.21-3.49,.23l-7.36,.14c-.29,0-.53,.24-.53,.54v1.32c0,.28,.22,.52,.5,.54,2.37,.16,2.38,.31,2.67,4.23,.2,2.46,.29,10.18,.29,11.8v3.22c0,7.02-.36,7.04-3.2,7.16-.29,.01-.51,.25-.51,.54v1.22c0,.3,.24,.54,.54,.54h1.46c.41,0,1.58-.01,2.77-.03,1.21-.01,2.44-.03,2.89-.03,.51,0,2.04,.06,3.53,.12,1.64,.07,3.34,.13,3.98,.13,12.99,0,18.8-8.13,18.8-16.18,0-9.12-7.68-15.74-18.27-15.74Zm11.16,15.89c0,7.71-4.67,13.3-11.11,13.3-2.22,0-4.3-.65-5.86-1.16-.09-4.04-.13-11.11-.13-13.21,0-5.55,.08-8.24,.36-11.19,1.88-.84,3.52-.94,4.6-.94,9.6,0,12.14,8.64,12.14,13.2Z"/><path class="d" d="M500.61,60.35h-1.07c-.23,0-.44,.17-.51,.38-.6,1.66-1.85,5.13-8.75,5.13-2.39,0-4.43-.29-6.26-.62-.23-1.26-.5-2.94-.5-5.33,0-.06,.01-.65,.03-1.45,.03-1.44,.09-3.56,.1-4.54,.82-.13,1.5-.2,3.22-.2q7.2,0,7.75,3.92c.04,.26,.26,.46,.53,.46h1.13c.3,0,.54-.24,.54-.54v-9.31c0-.3-.24-.54-.54-.54h-1.13c-.3,0-.53,.18-.53,.47-.1,.69-.57,2.19-.96,2.35-.3,.13-2.64,.48-6.1,.48-1.36,0-2.65-.06-3.69-.11h-.22c-.04-1.93-.04-2.75-.04-3.74,0-2.78,.14-4.56,.43-7.08,1.83-.25,3.76-.47,5.65-.47,5.62,0,6.35,1.14,6.35,2.13,0,.57-.13,1.17-.28,1.79-.04,.15,0,.31,.08,.43,.09,.13,.23,.21,.38,.22,.13,.01,.28,.04,.43,.06,.25,.04,.49,.08,.65,.08s.38-.05,.61-.28c.75-.79,1.27-3.82,1.15-6.75,0-.15-.07-.28-.18-.38-.11-.1-.25-.14-.4-.13-3.15,.24-4.85,.24-8.24,.24h-15.39c-.3,0-.54,.24-.54,.54v.83c0,.13,.04,.25,.12,.34,.15,.18,.36,.23,.63,.29l.19,.04c1.57,.38,1.86,.45,2.02,2.83,0,.72,.09,2.66,.18,4.54,.08,1.7,.16,3.46,.16,4.04,0,4.14-.12,11.8-.57,14.28-.22,1.24-.84,1.42-2.59,1.75-.23,.04-.41,.23-.43,.47l-.15,1.28c-.02,.16,.04,.32,.15,.43,.11,.12,.27,.18,.43,.16,4.8-.34,6.86-.44,11.31-.44s6.38,.06,12.74,.44c.01,0,.02,0,.03,0,.21,0,.41-.13,.49-.32,1.42-3.28,1.89-4.76,2.14-7.62,.01-.15-.04-.3-.14-.41-.1-.11-.25-.17-.4-.17Z"/><path class="d" d="M545.96,59.96l-1.12-.15c-.27-.04-.5,.12-.58,.36-1.24,3.8-4.52,6.06-8.76,6.06-1.13,0-11.01-.39-11.01-13.79,0-8.61,3.56-13.15,10.28-13.15,4.24,0,6.91,2.04,7.41,2.61,.51,.53,.58,.96,.81,2.91l.02,.14c.03,.22,.18,.4,.39,.46l.78,.21c.15,.04,.3,.02,.42-.06,.13-.08,.21-.21,.24-.36,.14-.77,.71-3.4,1.09-5.13l.32-1.48c.06-.27-.1-.54-.37-.62l-.63-.2c-.13-.04-.34,0-.46,.06-.37,.17-.67,.3-1.02,.3-.41,0-1.47-.37-1.8-.49-2-.78-3.85-1.11-6.19-1.11-9.02,0-18.13,5-18.13,16.17,0,9.43,7.19,16.28,17.11,16.28,.05,0,4.75-.02,9.69-1.39,.18-.05,.32-.19,.37-.38l.55-2.04c.03-.17,.28-1.06,.62-2.23,.33-1.18,.36-1.63,.4-2.24v-.16c.03-.28-.17-.53-.45-.57Z"/><path class="d" d="M595.55,66.59c-1.74-.25-2.46-.36-5.19-7.95-.24-.64-.72-1.88-1.32-3.43-1.79-4.65-4.78-12.42-5.55-14.59-.46-1.29-.74-2.23-.99-3.05l-.17-.57c-.07-.23-.28-.38-.51-.38h-1.27c-.23,0-.44,.15-.51,.37-.25,.78-.55,1.68-1.06,2.94-.64,1.66-9.03,22.31-10.74,25.02-.79,1.32-1.81,1.51-2.55,1.65-.25,.05-.44,.27-.44,.53v.98c0,.15,.06,.29,.17,.39,.11,.1,.25,.16,.41,.14,.51-.04,1.64-.06,3.36-.06,.04,0,.19,0,.42,.02,.52,.02,1.44,.06,2.4,.09l1.39,.04c.88,.03,1.62,.05,1.85,.05,.3,0,.54-.24,.54-.54v-1.12c0-.27-.2-.49-.46-.53h-.1c-1.59-.24-3.14-.57-3.14-1.77,0-.53,.66-2.19,.98-2.99l1.49-3.59c2.2-.29,4.35-.29,6.1-.29s2.45,.04,3.12,.11c.05,.14,.11,.31,.18,.51,1.49,4.09,2.26,6.36,2.29,6.75,0,.63-.67,1.06-1.98,1.27-.26,.04-.45,.27-.45,.53v1.12c0,.15,.06,.29,.17,.39,.11,.1,.25,.16,.4,.14,.37-.02,.78-.05,1.23-.09,1.39-.11,3.28-.26,5.55-.26,2.05,0,3.17,.11,4.25,.21,.16,0,.3-.04,.41-.14,.11-.1,.17-.25,.17-.4v-.98c0-.27-.2-.49-.46-.53Zm-12.82-11.38c-.58,.06-1.3,.11-2.43,.11-1.72,0-3.26-.16-4.51-.33l3.43-8.56c1.29,2.78,2.44,5.83,3.51,8.78Z"/><path class="d" d="M638.04,37.3c-.1-.1-.24-.16-.39-.16-.37,0-1.38,.02-2.4,.05-1.04,.02-2.09,.05-2.48,.05-.67,0-1.62-.03-2.91-.1l-.62-.03c-.76-.04-1.39-.06-1.73-.06-.27,0-.5,.21-.53,.48l-.15,1.41c-.02,.15,.03,.3,.13,.41,.1,.11,.24,.18,.38,.19h.17c1.65,.07,2.34,.22,2.34,.98,0,.87-.34,1.47-5.94,10.23-3.17-3.91-7.54-10.1-7.71-10.9,0,0,.3-.36,2.05-.36,.27,0,.49-.19,.53-.46l.2-1.32c.02-.16-.02-.31-.13-.43-.1-.12-.26-.18-.41-.18l-6.66,.1c-.38,0-1.34-.03-2.43-.07l-.89-.03c-.88,0-1.75-.02-2.39-.03-.71-.02-1.07-.09-1.29,.18-.1,.12-.15,.28-.12,.44l.2,1.17c.04,.26,.27,.45,.53,.45,2.82,0,4.14,1.63,5.96,3.87,4.97,6.65,6.3,8.76,7.75,11.1,.03,.76,.03,1,.03,1.54,0,7.54-.19,9.02-.27,9.31-.19,.65-.37,1.27-3.32,1.51-.27,.02-.48,.24-.49,.51l-.05,1.12c0,.15,.05,.29,.15,.39,.1,.11,.24,.17,.39,.17,.49,0,1.88-.09,3.35-.18,1.55-.1,3.15-.2,3.71-.2,1.78,0,3.93,.19,5.51,.33l.63,.06s.03,0,.05,0c.27,0,.51-.21,.53-.49l.1-1.12c.03-.29-.18-.54-.46-.58-1.81-.25-3.49-.89-3.6-1.33-.06-.28-.18-1.95-.19-11.44l1.92-3.19c5.91-9.94,7.5-10.85,10.51-10.9,.29,0,.52-.23,.53-.52l.05-1.57c0-.15-.05-.29-.15-.39Z"/><path class="d" d="M267.22,76.81h0c-4.14,1.17-8.03-.7-10.57-2.48-3.4-2.37-6.73-5.94-9.92-10.66-.95-1.29-1.9-2.79-2.82-4.24-1.76-2.77-3.32-5.24-4.83-6.38,3.8-1.59,6.11-4.47,6.11-7.72,0-4.18-3.63-8.67-11.6-8.67-.51,0-1.75,.1-3.18,.22l-.81,.07c-1.67,.15-3.34,.24-3.94,.24-.28,0-1.1-.01-1.94-.02-.91-.01-1.85-.02-2.2-.02-.26,0-.49,.19-.53,.45l-.2,1.27c-.02,.15,.05,.3,.14,.42s.27,.19,.42,.2c1.3,.06,2.49,.25,2.7,1.82,.14,1.07,.19,2.01,.19,8.41,0,3.64-.13,13.7-.43,14.84-.27,1.25-.78,1.52-2.84,2.14-.23,.07-.38,.28-.38,.51v1.17c0,.15,.06,.29,.18,.4,.11,.1,.26,.15,.41,.14,3.58-.34,3.94-.34,5.94-.34,1.33,0,2.07,0,2.97,.06,.76,.04,1.61,.09,3.1,.27,.29,.04,.55-.16,.6-.45l.19-1.17c.02-.14-.01-.29-.1-.4-.08-.12-.21-.19-.36-.21-.88-.13-2.45-.57-2.88-1.22-.21-.33-.56-1.71-.56-7.22,0-2.46,.04-3.42,.08-4.34,.43-.15,1.46-.38,2.58-.12,.59,.07,2.42,.85,3.85,3.62,.7,1.11,1.32,2.09,1.87,2.97,2.98,4.76,4.22,6.73,7.88,10.77,4.76,5.35,7.77,7.42,12.84,8.84,.09,.03,1.59,.5,3.42,.5,.97,0,2.04-.13,3.04-.54,1.45-.5,2.23-1.87,2.31-2.45,.03-.2-.07-.5-.24-.61-.14-.09-.33-.12-.5-.07Zm-34.6-37.62c6.17,0,6.25,6.36,6.25,6.63,0,5.7-4.44,5.7-6.83,5.7-.95,0-1.27-.02-1.71-.1-.04-3.9-.04-4.55,.15-8.98v-.11c.15-3.02,.15-3.14,2.14-3.14Z"/></g><path class="d" d="M123.15,22.26l-20.35-7.83c-.15-.07-.28-.13-.43-.19-3.02-1.35-4.96-2.63-5.02-5.9-.04-1.95,2.71-7.73,12.59-4.82,2.13,.6,2.99,1.92,3.42,2.33-.89-3.33-5.1-5.85-10.18-5.85-.66,0-1.3,.04-1.92,.12-.42,.06-.82,.12-1.22,.21-.04,0-.06,.01-.08,.01-.54,.13-1.08,.29-1.61,.47-.03,0-.06,.02-.09,.02-.3,.11-.58,.25-.88,.37-6.28,2.66-11.09,9.26-11.09,17.2,0,11.81,11.81,17.51,21.06,20.08,0,5.4-6.27,5.83-11.25,5.83-2.56,0-5.41-.71-7.54-1.42v37.71c0,1.7-.15,5.41-5.27,5.84v1.71c10.96,2.99,20.63,9.4,28.75,16.79,3.98-7.68,9.25-10.53,17.08-12.39,11.81-2.84,14.1-5.83,14.1-30.88,0-18.78-.72-32.3-20.08-39.42m-11-17.63h0s-.01,0-.02,0h.02Zm9.72,84.39c-3.42-3.14-7.4-6.55-11.95-8.82V39.34c9.96,2.13,11.95,6.69,11.95,13.24v36.43Zm-39.22-11.8l-18.79,17.08c-6.97-3.85-12.95-7.83-13.09-17.08l-23.34,17.08c-4.66-4.67-10.33-9.32-16.79-13.95v-1.71c5.55,0,7.69-1.84,7.69-7.4V38.94c.06-3.72-3.18-13.91-11.77-10.64-2.4,.91-6.07,5.49,.44,13.47,1.38,1.72,2.92,2.01,3.48,2.25-3.41,.48-7.38-2.43-9.34-7.11-.26-.61-.46-1.22-.63-1.82-.1-.4-.21-.8-.29-1.21,0-.03,0-.05,0-.08-.09-.54-.15-1.1-.19-1.66,0-.03,0-.05,0-.08-.02-.32,0-.63,0-.95,.01-6.83,4.23-13.81,11.56-16.89,6-2.53,11.68-1.02,16.57,2.11h0c.14,.07,.25,.15,.38,.24,.16,.1,.31,.21,.46,.32,10.53,7.11,10.69,14.93,10.69,19.64v36.71c0,2.56,.71,5.83,3.41,5.83,1.42,0,2.28-.56,3.41-1.27l4.28-3V36.23c.04-3.16-2.22-3.49-5.06-3.63l-.43-1.34c5.44-4.83,16.02-14.95,16.02-14.95,0,0,10.53,11.81,18.07,13.66v1.7h-2.28c-3.98,0-4.98,2.42-4.98,7.83v31.74c0,4.99,2.28,6.83,4.98,6.83,1.57,0,3.41-1.56,4.41-2.71l1.14,1.85Z"/></g></g></g></svg>